<mxfile host="app.diagrams.net" modified="2023-06-28T13:45:48.563Z" agent="Mozilla/5.0 (Windows NT 10.0; Win64; x64) AppleWebKit/537.36 (KHTML, like Gecko) Chrome/114.0.0.0 Safari/537.36" etag="4uKyEe9p5LumisPsso3Z" version="21.5.1" type="github">
  <diagram id="C5RBs43oDa-KdzZeNtuy" name="Page-1">
    <mxGraphModel dx="1050" dy="549" grid="1" gridSize="10" guides="1" tooltips="1" connect="1" arrows="1" fold="1" page="1" pageScale="1" pageWidth="827" pageHeight="1169" math="0" shadow="0">
      <root>
        <mxCell id="WIyWlLk6GJQsqaUBKTNV-0" />
        <mxCell id="WIyWlLk6GJQsqaUBKTNV-1" parent="WIyWlLk6GJQsqaUBKTNV-0" />
        <mxCell id="f6SBRTHlJe-UBiL96RcW-10" value="" style="edgeStyle=orthogonalEdgeStyle;rounded=0;orthogonalLoop=1;jettySize=auto;html=1;" parent="WIyWlLk6GJQsqaUBKTNV-1" source="f6SBRTHlJe-UBiL96RcW-0" target="f6SBRTHlJe-UBiL96RcW-1" edge="1">
          <mxGeometry relative="1" as="geometry">
            <Array as="points">
              <mxPoint x="390" y="110" />
              <mxPoint x="390" y="110" />
            </Array>
          </mxGeometry>
        </mxCell>
        <mxCell id="f6SBRTHlJe-UBiL96RcW-0" value="START" style="ellipse;whiteSpace=wrap;html=1;aspect=fixed;" parent="WIyWlLk6GJQsqaUBKTNV-1" vertex="1">
          <mxGeometry x="290" width="80" height="80" as="geometry" />
        </mxCell>
        <mxCell id="f6SBRTHlJe-UBiL96RcW-12" value="" style="edgeStyle=orthogonalEdgeStyle;rounded=0;orthogonalLoop=1;jettySize=auto;html=1;" parent="WIyWlLk6GJQsqaUBKTNV-1" source="f6SBRTHlJe-UBiL96RcW-1" target="f6SBRTHlJe-UBiL96RcW-2" edge="1">
          <mxGeometry relative="1" as="geometry" />
        </mxCell>
        <mxCell id="f6SBRTHlJe-UBiL96RcW-1" value="Send mail to HELPDESK" style="rounded=1;whiteSpace=wrap;html=1;" parent="WIyWlLk6GJQsqaUBKTNV-1" vertex="1">
          <mxGeometry x="270" y="100" width="120" height="60" as="geometry" />
        </mxCell>
        <mxCell id="f6SBRTHlJe-UBiL96RcW-13" value="" style="edgeStyle=orthogonalEdgeStyle;rounded=0;orthogonalLoop=1;jettySize=auto;html=1;" parent="WIyWlLk6GJQsqaUBKTNV-1" source="f6SBRTHlJe-UBiL96RcW-2" target="f6SBRTHlJe-UBiL96RcW-3" edge="1">
          <mxGeometry relative="1" as="geometry" />
        </mxCell>
        <mxCell id="f6SBRTHlJe-UBiL96RcW-2" value="TICKET gets logged on the portal" style="rounded=1;whiteSpace=wrap;html=1;" parent="WIyWlLk6GJQsqaUBKTNV-1" vertex="1">
          <mxGeometry x="270" y="210" width="120" height="60" as="geometry" />
        </mxCell>
        <mxCell id="f6SBRTHlJe-UBiL96RcW-14" value="" style="edgeStyle=orthogonalEdgeStyle;rounded=0;orthogonalLoop=1;jettySize=auto;html=1;" parent="WIyWlLk6GJQsqaUBKTNV-1" source="f6SBRTHlJe-UBiL96RcW-3" target="f6SBRTHlJe-UBiL96RcW-4" edge="1">
          <mxGeometry relative="1" as="geometry">
            <Array as="points">
              <mxPoint x="330" y="400" />
              <mxPoint x="330" y="400" />
            </Array>
          </mxGeometry>
        </mxCell>
        <mxCell id="f6SBRTHlJe-UBiL96RcW-3" value="HELPDESK Agent gets notified of TICKET logged" style="rounded=1;whiteSpace=wrap;html=1;" parent="WIyWlLk6GJQsqaUBKTNV-1" vertex="1">
          <mxGeometry x="270" y="330" width="120" height="60" as="geometry" />
        </mxCell>
        <mxCell id="f6SBRTHlJe-UBiL96RcW-28" value="" style="edgeStyle=orthogonalEdgeStyle;rounded=0;orthogonalLoop=1;jettySize=auto;html=1;" parent="WIyWlLk6GJQsqaUBKTNV-1" source="f6SBRTHlJe-UBiL96RcW-4" target="f6SBRTHlJe-UBiL96RcW-23" edge="1">
          <mxGeometry relative="1" as="geometry" />
        </mxCell>
        <mxCell id="f6SBRTHlJe-UBiL96RcW-4" value="Agent Updates ticket Status&lt;br&gt;(Resolved/Closed/pending/open)" style="rounded=1;whiteSpace=wrap;html=1;" parent="WIyWlLk6GJQsqaUBKTNV-1" vertex="1">
          <mxGeometry x="230" y="430" width="190" height="60" as="geometry" />
        </mxCell>
        <mxCell id="f6SBRTHlJe-UBiL96RcW-20" value="" style="edgeStyle=orthogonalEdgeStyle;rounded=0;orthogonalLoop=1;jettySize=auto;html=1;" parent="WIyWlLk6GJQsqaUBKTNV-1" source="f6SBRTHlJe-UBiL96RcW-5" target="f6SBRTHlJe-UBiL96RcW-9" edge="1">
          <mxGeometry relative="1" as="geometry" />
        </mxCell>
        <mxCell id="f6SBRTHlJe-UBiL96RcW-5" value="Change the TICKET status to closed" style="rounded=1;whiteSpace=wrap;html=1;" parent="WIyWlLk6GJQsqaUBKTNV-1" vertex="1">
          <mxGeometry x="470" y="630" width="120" height="60" as="geometry" />
        </mxCell>
        <mxCell id="f6SBRTHlJe-UBiL96RcW-35" style="edgeStyle=orthogonalEdgeStyle;rounded=0;orthogonalLoop=1;jettySize=auto;html=1;exitX=1;exitY=0.5;exitDx=0;exitDy=0;entryX=1;entryY=0.5;entryDx=0;entryDy=0;" parent="WIyWlLk6GJQsqaUBKTNV-1" source="f6SBRTHlJe-UBiL96RcW-6" target="f6SBRTHlJe-UBiL96RcW-3" edge="1">
          <mxGeometry relative="1" as="geometry" />
        </mxCell>
        <mxCell id="f6SBRTHlJe-UBiL96RcW-6" value="Opens the Ticket and change TICKET Status to OPEN" style="rounded=1;whiteSpace=wrap;html=1;" parent="WIyWlLk6GJQsqaUBKTNV-1" vertex="1">
          <mxGeometry x="720" y="620" width="120" height="60" as="geometry" />
        </mxCell>
        <mxCell id="f6SBRTHlJe-UBiL96RcW-16" style="edgeStyle=orthogonalEdgeStyle;rounded=0;orthogonalLoop=1;jettySize=auto;html=1;exitX=0.5;exitY=1;exitDx=0;exitDy=0;entryX=0.5;entryY=0;entryDx=0;entryDy=0;" parent="WIyWlLk6GJQsqaUBKTNV-1" source="f6SBRTHlJe-UBiL96RcW-7" target="f6SBRTHlJe-UBiL96RcW-8" edge="1">
          <mxGeometry relative="1" as="geometry" />
        </mxCell>
        <mxCell id="f6SBRTHlJe-UBiL96RcW-7" value="User gets notified of Ticket&#39;s Status" style="rounded=1;whiteSpace=wrap;html=1;" parent="WIyWlLk6GJQsqaUBKTNV-1" vertex="1">
          <mxGeometry x="600" y="430" width="120" height="60" as="geometry" />
        </mxCell>
        <mxCell id="f6SBRTHlJe-UBiL96RcW-17" style="edgeStyle=orthogonalEdgeStyle;rounded=0;orthogonalLoop=1;jettySize=auto;html=1;exitX=1;exitY=0.5;exitDx=0;exitDy=0;entryX=0.583;entryY=0;entryDx=0;entryDy=0;entryPerimeter=0;" parent="WIyWlLk6GJQsqaUBKTNV-1" source="f6SBRTHlJe-UBiL96RcW-8" target="f6SBRTHlJe-UBiL96RcW-6" edge="1">
          <mxGeometry relative="1" as="geometry" />
        </mxCell>
        <mxCell id="f6SBRTHlJe-UBiL96RcW-33" value="NO&lt;br&gt;" style="edgeLabel;html=1;align=center;verticalAlign=middle;resizable=0;points=[];" parent="f6SBRTHlJe-UBiL96RcW-17" vertex="1" connectable="0">
          <mxGeometry x="-0.1627" y="1" relative="1" as="geometry">
            <mxPoint y="-9" as="offset" />
          </mxGeometry>
        </mxCell>
        <mxCell id="f6SBRTHlJe-UBiL96RcW-18" style="edgeStyle=orthogonalEdgeStyle;rounded=0;orthogonalLoop=1;jettySize=auto;html=1;exitX=0;exitY=0.5;exitDx=0;exitDy=0;entryX=0.5;entryY=0;entryDx=0;entryDy=0;" parent="WIyWlLk6GJQsqaUBKTNV-1" source="f6SBRTHlJe-UBiL96RcW-8" target="f6SBRTHlJe-UBiL96RcW-5" edge="1">
          <mxGeometry relative="1" as="geometry" />
        </mxCell>
        <mxCell id="f6SBRTHlJe-UBiL96RcW-34" value="YES" style="edgeLabel;html=1;align=center;verticalAlign=middle;resizable=0;points=[];" parent="f6SBRTHlJe-UBiL96RcW-18" vertex="1" connectable="0">
          <mxGeometry x="-0.335" y="2" relative="1" as="geometry">
            <mxPoint x="3" y="-12" as="offset" />
          </mxGeometry>
        </mxCell>
        <mxCell id="f6SBRTHlJe-UBiL96RcW-8" value="User Replied as Resolved Ticket??" style="rhombus;whiteSpace=wrap;html=1;" parent="WIyWlLk6GJQsqaUBKTNV-1" vertex="1">
          <mxGeometry x="620" y="520" width="80" height="80" as="geometry" />
        </mxCell>
        <mxCell id="f6SBRTHlJe-UBiL96RcW-9" value="END" style="ellipse;whiteSpace=wrap;html=1;aspect=fixed;" parent="WIyWlLk6GJQsqaUBKTNV-1" vertex="1">
          <mxGeometry x="490" y="730" width="80" height="80" as="geometry" />
        </mxCell>
        <mxCell id="f6SBRTHlJe-UBiL96RcW-26" value="" style="edgeStyle=orthogonalEdgeStyle;rounded=0;orthogonalLoop=1;jettySize=auto;html=1;" parent="WIyWlLk6GJQsqaUBKTNV-1" source="f6SBRTHlJe-UBiL96RcW-23" target="f6SBRTHlJe-UBiL96RcW-25" edge="1">
          <mxGeometry relative="1" as="geometry" />
        </mxCell>
        <mxCell id="f6SBRTHlJe-UBiL96RcW-30" value="NO&lt;br&gt;" style="edgeLabel;html=1;align=center;verticalAlign=middle;resizable=0;points=[];" parent="f6SBRTHlJe-UBiL96RcW-26" vertex="1" connectable="0">
          <mxGeometry x="0.1787" y="-1" relative="1" as="geometry">
            <mxPoint x="-11" y="-9" as="offset" />
          </mxGeometry>
        </mxCell>
        <mxCell id="f6SBRTHlJe-UBiL96RcW-27" style="edgeStyle=orthogonalEdgeStyle;rounded=0;orthogonalLoop=1;jettySize=auto;html=1;exitX=1;exitY=0.5;exitDx=0;exitDy=0;entryX=0;entryY=0.5;entryDx=0;entryDy=0;" parent="WIyWlLk6GJQsqaUBKTNV-1" source="f6SBRTHlJe-UBiL96RcW-23" target="f6SBRTHlJe-UBiL96RcW-7" edge="1">
          <mxGeometry relative="1" as="geometry" />
        </mxCell>
        <mxCell id="f6SBRTHlJe-UBiL96RcW-31" value="YES" style="edgeLabel;html=1;align=center;verticalAlign=middle;resizable=0;points=[];" parent="f6SBRTHlJe-UBiL96RcW-27" vertex="1" connectable="0">
          <mxGeometry x="-0.7113" y="1" relative="1" as="geometry">
            <mxPoint x="-1" y="-9" as="offset" />
          </mxGeometry>
        </mxCell>
        <mxCell id="f6SBRTHlJe-UBiL96RcW-23" value="Is TICKET status Resolved?" style="rhombus;whiteSpace=wrap;html=1;" parent="WIyWlLk6GJQsqaUBKTNV-1" vertex="1">
          <mxGeometry x="285" y="530" width="80" height="80" as="geometry" />
        </mxCell>
        <mxCell id="f6SBRTHlJe-UBiL96RcW-29" style="edgeStyle=orthogonalEdgeStyle;rounded=0;orthogonalLoop=1;jettySize=auto;html=1;exitX=0.5;exitY=0;exitDx=0;exitDy=0;entryX=0;entryY=0.5;entryDx=0;entryDy=0;" parent="WIyWlLk6GJQsqaUBKTNV-1" source="f6SBRTHlJe-UBiL96RcW-25" target="f6SBRTHlJe-UBiL96RcW-4" edge="1">
          <mxGeometry relative="1" as="geometry" />
        </mxCell>
        <mxCell id="f6SBRTHlJe-UBiL96RcW-25" value="Send Reminder to the Agent" style="rounded=1;whiteSpace=wrap;html=1;" parent="WIyWlLk6GJQsqaUBKTNV-1" vertex="1">
          <mxGeometry x="90" y="540" width="120" height="60" as="geometry" />
        </mxCell>
      </root>
    </mxGraphModel>
  </diagram>
</mxfile>
